<?xml version="1.0" standalone="no"?>
<!DOCTYPE svg PUBLIC "-//W3C//DTD SVG 20010904//EN"
 "http://www.w3.org/TR/2001/REC-SVG-20010904/DTD/svg10.dtd">
<svg version="1.0" xmlns="http://www.w3.org/2000/svg"
 width="2128.000000pt" height="2128.000000pt" viewBox="0 0 2128.000000 2128.000000"
 preserveAspectRatio="xMidYMid meet">
<metadata>
Created by potrace 1.14, written by Peter Selinger 2001-2017
</metadata>
<g transform="translate(0.000000,2128.000000) scale(0.100000,-0.100000)"
fill="#000000" stroke="none">
<path d="M9855 20270 c-356 -22 -685 -101 -1038 -251 -548 -233 -911 -425
-1121 -593 -164 -130 -615 -588 -736 -746 -57 -74 -142 -182 -188 -240 -73
-92 -100 -138 -219 -380 -268 -545 -359 -790 -434 -1168 -16 -85 -25 -112 -36
-108 -7 3 -84 11 -171 17 -196 15 -647 6 -832 -16 -227 -27 -497 -99 -710
-192 -69 -30 -152 -66 -185 -80 -131 -57 -445 -212 -530 -263 -143 -85 -192
-118 -289 -198 -122 -101 -477 -458 -551 -555 -33 -44 -107 -138 -164 -210
-98 -124 -113 -149 -236 -402 -175 -356 -237 -503 -295 -700 -18 -60 -36 -132
-40 -160 -4 -27 -16 -95 -28 -150 -12 -55 -34 -165 -49 -245 l-28 -145 0 -560
c0 -486 2 -574 17 -665 10 -58 22 -121 28 -140 5 -19 10 -48 10 -64 0 -17 11
-71 24 -120 13 -50 39 -152 57 -226 37 -156 135 -465 184 -584 71 -174 88
-212 115 -266 15 -30 40 -86 55 -125 15 -38 53 -126 85 -195 32 -69 86 -192
121 -275 66 -158 248 -524 341 -685 30 -52 74 -129 98 -170 130 -227 265 -402
513 -669 213 -227 515 -525 592 -582 65 -48 310 -204 338 -215 16 -6 17 -24
11 -248 -10 -349 11 -461 133 -700 46 -89 73 -128 138 -196 91 -95 97 -106
125 -241 84 -405 24 -789 -181 -1169 -140 -258 -207 -422 -243 -596 -18 -84
-36 -316 -36 -462 0 -231 66 -483 196 -750 86 -176 153 -272 329 -477 174
-202 235 -291 266 -387 20 -65 21 -77 11 -138 -6 -37 -36 -125 -66 -196 -72
-172 -76 -189 -76 -330 0 -138 11 -187 72 -309 102 -205 320 -335 562 -335
120 0 174 14 296 75 68 34 101 60 166 127 73 76 85 94 138 213 157 349 205
567 193 875 -3 80 -13 181 -22 225 -29 142 -93 318 -174 482 -86 173 -164 286
-321 463 -126 142 -207 252 -244 330 -28 60 -31 73 -31 165 1 171 20 231 153
496 127 250 187 411 256 679 53 210 60 285 61 680 l1 355 113 110 c134 130
170 180 256 357 97 198 115 279 115 504 0 135 -4 194 -16 233 -8 29 -14 54
-12 56 2 1 39 21 83 44 77 39 116 65 238 158 88 68 395 372 567 562 146 162
342 398 415 500 17 23 51 69 76 104 72 96 239 351 304 462 32 55 80 136 105
180 26 44 66 117 89 163 23 45 44 82 47 82 3 0 23 -13 43 -29 57 -45 336 -218
449 -278 77 -42 102 -59 98 -72 -3 -9 -10 -43 -16 -76 -6 -33 -27 -124 -47
-203 l-35 -143 4 -202 c4 -189 6 -208 32 -287 16 -47 55 -139 88 -204 54 -108
70 -130 165 -227 90 -92 119 -115 197 -155 50 -26 129 -60 175 -74 l84 -26 23
-86 c47 -175 142 -387 248 -548 l55 -85 -32 -8 c-101 -24 -213 -65 -301 -109
-88 -44 -114 -64 -218 -166 -113 -111 -121 -121 -182 -241 -103 -203 -136
-336 -136 -546 0 -208 33 -343 133 -540 58 -116 65 -125 203 -264 l143 -143
-65 -130 c-72 -144 -113 -258 -146 -411 -20 -92 -22 -130 -22 -397 -1 -270 1
-304 22 -400 36 -163 93 -323 176 -488 85 -169 130 -243 247 -404 160 -218
210 -313 211 -398 0 -39 -26 -82 -116 -190 -45 -52 -97 -154 -120 -229 -22
-75 -22 -287 0 -362 32 -107 82 -190 167 -277 135 -138 243 -182 447 -182 145
0 196 12 312 72 225 117 500 540 573 883 21 100 21 458 -1 563 -27 134 -92
316 -165 464 -77 154 -128 238 -269 434 -127 177 -167 248 -191 339 -36 139
-24 328 27 404 13 21 73 77 133 124 121 98 360 336 410 410 18 26 64 112 102
190 95 196 129 329 129 508 0 124 2 135 39 248 22 65 52 172 68 237 27 116 28
126 28 399 0 262 -2 286 -24 375 -37 147 -87 283 -156 425 -82 168 -144 267
-277 442 l-107 142 72 39 c52 29 101 70 178 149 95 97 112 119 157 213 28 58
64 146 79 195 27 88 28 96 28 330 0 260 -8 337 -56 527 -16 64 -29 119 -29
121 0 3 24 19 54 35 120 69 269 194 516 438 l255 252 34 -56 c19 -32 54 -93
79 -137 25 -44 73 -123 107 -175 34 -52 78 -120 98 -151 77 -123 319 -398 604
-689 274 -280 419 -403 589 -499 39 -22 75 -46 81 -53 9 -10 4 -39 -18 -118
-37 -135 -49 -231 -49 -406 0 -218 39 -387 126 -556 54 -102 219 -273 313
-322 l68 -36 7 -157 c8 -176 20 -234 97 -468 61 -188 205 -484 321 -661 136
-208 131 -200 124 -250 -10 -75 -59 -156 -128 -216 -115 -97 -324 -312 -388
-398 -133 -180 -205 -370 -266 -700 -24 -132 -26 -161 -21 -320 6 -206 28
-304 103 -460 25 -52 62 -139 81 -194 55 -157 161 -360 232 -441 33 -38 97
-115 142 -170 45 -55 140 -159 211 -231 70 -72 128 -136 128 -143 0 -16 -40
-74 -55 -80 -5 -2 -45 -38 -89 -80 -83 -81 -137 -170 -170 -280 -22 -75 -22
-287 0 -362 63 -211 232 -380 443 -443 83 -25 270 -22 357 5 138 43 219 92
336 207 173 168 274 308 372 512 76 159 97 248 103 440 7 196 -5 294 -48 426
-35 105 -166 379 -206 432 l-25 33 56 60 c96 103 197 299 250 483 23 78 26
107 26 243 0 151 -1 158 -35 260 -19 58 -56 146 -82 197 -40 79 -64 108 -175
221 l-129 130 82 169 c87 180 122 275 160 427 21 84 23 116 23 304 -1 192 -3
218 -26 306 -57 211 -135 367 -353 704 -29 44 -68 116 -88 160 -42 96 -91 251
-84 270 3 7 30 21 59 30 29 10 105 44 168 75 107 54 123 66 221 167 90 91 114
123 153 200 81 163 91 213 91 473 -1 193 -4 239 -22 320 -12 52 -21 95 -20 96
45 19 216 122 282 169 148 106 450 406 765 761 117 131 372 462 467 604 24 36
49 74 57 85 50 73 170 262 205 325 24 41 65 113 92 160 55 95 256 491 312 615
90 199 155 356 212 510 51 138 166 487 175 533 6 26 21 85 34 132 73 264 145
601 166 780 6 41 17 122 25 180 42 288 56 758 30 1047 -51 572 -259 1170 -601
1728 -83 135 -268 374 -409 527 -159 174 -417 408 -584 531 -213 155 -558 354
-738 426 -26 10 -86 35 -133 56 -47 20 -116 48 -155 61 -91 33 -373 114 -394
114 -9 0 -52 12 -96 26 -44 14 -116 29 -160 34 -44 6 -120 17 -170 26 -117 21
-917 32 -1065 14 -157 -18 -269 -39 -385 -72 -60 -16 -116 -31 -123 -32 -8 0
-45 54 -84 124 -206 367 -396 615 -728 950 -374 377 -664 586 -1140 824 -499
249 -962 389 -1496 452 -153 18 -766 27 -979 14z"/>
</g>
</svg>
